<svg xmlns="http://www.w3.org/2000/svg" xmlns:xlink="http://www.w3.org/1999/xlink" version="1.1" id="Capa_1" x="0px" y="0px" viewBox="0 0 512 512" style="enable-background:new 0 0 512 512;" xml:space="preserve" width="512" height="512" class=""><g><path style="fill:#FAE4C8;" d="M227.155,66.35c-5.204-6.885-13.384-11.328-22.59-11.328c-4.907,0-9.523,1.263-13.551,3.481  c-2.383-13.526-13.998-23.804-28.001-23.804c-14.448,0-26.352,10.941-28.195,25.107c-4.495-3.017-9.874-4.784-15.666-4.784  c-15.724,0-28.47,12.949-28.47,28.923c0,0.865,0.054,1.716,0.126,2.562c-3.563-1.632-7.505-2.562-11.669-2.562  c-15.724,0-28.47,12.95-28.47,28.924c0,0.624,0.053,1.235,0.091,1.85c-4.297-2.646-9.321-4.196-14.711-4.196  c-15.725,0-28.472,12.949-28.472,28.923c0,8.375,3.525,15.896,9.126,21.178h210.451V66.35H227.155z" data-original="#FAE4C8"></path><path style="fill:#008DAF;" d="M395.545,375.289H216.639v30.081h122.155c2.538,16.044,16.004,27.688,32.018,27.688  c15.678,0,31.9-11.851,31.9-26.987c0-0.446,0.121-23.375,0.121-23.375C402.833,378.605,399.57,375.289,395.545,375.289z" data-original="#008DAF"></path><path style="fill:#F8D5AB;" d="M157.466,323.86c-9.167-9.354-21.419-14.505-34.504-14.505c-13.084,0-25.337,5.151-34.504,14.504  l-55.711,56.853h183.949L157.466,323.86z" data-original="#F8D5AB"></path><path style="opacity:0.1;enable-background:new    ;" d="M136.948,311.404c-4.475-1.346-9.174-2.049-13.986-2.049  c-13.084,0-25.337,5.151-34.504,14.504l-55.711,56.853h27.972l55.711-56.853C122.224,317.946,129.255,313.718,136.948,311.404z" data-original="#000000" class=""></path><path style="fill:#FFFFFF;" d="M121.386,345.207c-2.029,0-4.018-0.824-5.46-2.267c-1.442-1.442-2.267-3.43-2.267-5.459  c0-2.04,0.825-4.028,2.267-5.47c1.442-1.432,3.431-2.256,5.46-2.256c2.04,0,4.028,0.824,5.47,2.256  c1.432,1.442,2.256,3.43,2.256,5.47c0,2.03-0.824,4.017-2.256,5.459C125.414,344.383,123.426,345.207,121.386,345.207z" data-original="#FFFFFF"></path><g>
	<path style="fill:#F6B245;" d="M152.538,359.197c-2.03,0-4.018-0.834-5.46-2.267c-1.432-1.442-2.257-3.431-2.257-5.46   c0-2.039,0.825-4.028,2.257-5.47c1.442-1.432,3.43-2.267,5.46-2.267c2.04,0,4.028,0.835,5.47,2.267   c1.433,1.442,2.256,3.431,2.256,5.47c0,2.029-0.824,4.018-2.256,5.46C156.567,358.363,154.578,359.197,152.538,359.197z" data-original="#F6B245"></path>
	<path style="fill:#F6B245;" d="M98.732,366.099c-2.04,0-4.028-0.835-5.47-2.267c-1.432-1.442-2.256-3.431-2.256-5.47   c0-2.029,0.824-4.018,2.256-5.46c1.442-1.442,3.43-2.267,5.47-2.267c2.029,0,4.018,0.825,5.46,2.267s2.267,3.431,2.267,5.46   c0,2.04-0.825,4.028-2.267,5.47C102.75,365.265,100.762,366.099,98.732,366.099z" data-original="#F6B245"></path>
</g><path style="fill:#299FBC;" d="M227.188,375.289H3.415c-3.043,0-4.287,2.19-2.766,4.867l16.482,29.001v42.121  c0,14.351,11.491,26.024,25.617,26.024h163.946c14.123,0,25.618-11.673,25.618-26.024v-70.783  C232.313,377.62,230.016,375.289,227.188,375.289z" data-original="#299FBC" class=""></path><path style="opacity:0.1;enable-background:new    ;" d="M45.462,451.277v-42.121L28.98,380.155  c-1.521-2.676-0.277-4.867,2.766-4.867H3.415c-3.043,0-4.287,2.19-2.766,4.867l16.482,29.001v42.121  c0,14.351,11.491,26.024,25.617,26.024h28.33C56.953,477.301,45.462,465.628,45.462,451.277z" data-original="#000000" class=""></path><path style="fill:#FFCB00;" d="M348.279,281.356c-6.036-32.837-34.378-57.7-68.452-57.7c-34.075,0-62.417,24.863-68.454,57.7  H348.279z" data-original="#FFCB00" class=""></path><path style="opacity:0.1;enable-background:new    ;" d="M296.528,225.722c-5.353-1.339-10.941-2.065-16.701-2.065  c-34.075,0-62.417,24.863-68.454,57.7h33.403C249.793,254.07,270.217,232.305,296.528,225.722z" data-original="#000000" class=""></path><path style="fill:#F6B142;" d="M281.971,252.985c-2.029,0-4.028-0.824-5.46-2.267c-1.442-1.432-2.267-3.43-2.267-5.459  c0-2.04,0.824-4.028,2.267-5.46c1.432-1.443,3.431-2.267,5.46-2.267c2.039,0,4.028,0.824,5.46,2.267  c1.442,1.432,2.267,3.431,2.267,5.46s-0.824,4.018-2.267,5.459C285.999,252.162,284.01,252.985,281.971,252.985z" data-original="#F6B142" class=""></path><g>
	<path style="fill:#FFFFFF;" d="M254.516,264.503c-2.04,0-4.028-0.824-5.47-2.267c-1.432-1.432-2.256-3.42-2.256-5.459   c0-2.03,0.824-4.028,2.256-5.461c1.442-1.442,3.43-2.266,5.47-2.266c2.029,0,4.018,0.824,5.459,2.266   c1.443,1.432,2.267,3.431,2.267,5.461c0,2.029-0.823,4.027-2.267,5.459C258.534,263.679,256.546,264.503,254.516,264.503z" data-original="#FFFFFF"></path>
	<path style="fill:#FFFFFF;" d="M305.809,264.503c-2.039,0-4.028-0.824-5.47-2.267c-1.433-1.432-2.267-3.42-2.267-5.459   c0-2.03,0.834-4.028,2.267-5.461c1.441-1.442,3.431-2.266,5.47-2.266c2.029,0,4.018,0.824,5.46,2.266   c1.433,1.443,2.267,3.431,2.267,5.461c0,2.039-0.834,4.027-2.267,5.459C309.827,263.679,307.838,264.503,305.809,264.503z" data-original="#FFFFFF"></path>
	<path style="fill:#FFFFFF;" d="M185.999,108.121c-2.03,0-4.018-0.835-5.46-2.266c-1.442-1.442-2.267-3.431-2.267-5.46   c0-2.04,0.824-4.028,2.267-5.471c1.432-1.442,3.43-2.266,5.46-2.266c2.04,0,4.028,0.824,5.47,2.266   c1.432,1.443,2.256,3.431,2.256,5.471c0,2.029-0.824,4.018-2.256,5.46C190.027,107.287,188.038,108.121,185.999,108.121z" data-original="#FFFFFF"></path>
</g><path style="fill:#F6B245;" d="M148.665,86.879c-2.03,0-4.028-0.825-5.46-2.267c-1.442-1.442-2.266-3.431-2.266-5.46  c0-2.039,0.824-4.028,2.266-5.47c1.432-1.432,3.431-2.256,5.46-2.256s4.028,0.824,5.46,2.256c1.442,1.442,2.267,3.431,2.267,5.47  c0,2.029-0.824,4.018-2.267,5.46C152.693,86.055,150.695,86.879,148.665,86.879z" data-original="#F6B245"></path><path style="fill:#FFFFFF;" d="M118.146,113.412c-2.04,0-4.028-0.824-5.471-2.266c-1.432-1.432-2.256-3.42-2.256-5.46  c0-2.029,0.824-4.028,2.256-5.46c1.442-1.442,3.431-2.267,5.471-2.267c2.029,0,4.028,0.824,5.46,2.267  c1.443,1.432,2.267,3.43,2.267,5.46c0,2.04-0.824,4.028-2.267,5.46C122.175,112.587,120.176,113.412,118.146,113.412z" data-original="#FFFFFF"></path><path style="fill:#F6B245;" d="M71.01,117.207c-2.04,0-4.028-0.824-5.471-2.256c-1.431-1.442-2.256-3.43-2.256-5.47  c0-2.03,0.825-4.028,2.256-5.46c1.443-1.442,3.431-2.266,5.471-2.266c2.029,0,4.017,0.824,5.46,2.266  c1.442,1.432,2.266,3.431,2.266,5.46c0,2.04-0.824,4.028-2.266,5.47C75.028,116.383,73.039,117.207,71.01,117.207z" data-original="#F6B245"></path><path style="opacity:0.1;enable-background:new    ;" d="M34.862,187.186c-1.364-2.225-1.5-5.007-0.361-7.358  c16.031-33.093,49.845-54.477,86.141-54.477H86.908c-36.296,0-70.109,21.383-86.141,54.477c-1.139,2.351-1.002,5.133,0.361,7.358  c1.362,2.225,3.759,3.578,6.339,3.578H41.2C38.621,190.764,36.224,189.412,34.862,187.186z" data-original="#000000" class=""></path><rect x="273.4" y="96.87" style="fill:#995C57;" width="100.06" height="45.577" data-original="#995C57"></rect><path style="fill:#F8D5AB;" d="M414.648,87.774h-53.092c-2.833,0-5.151,2.318-5.151,5.151v53.473c0,2.833,2.318,5.151,5.151,5.151  h53.092V87.774z" data-original="#F8D5AB"></path><path style="opacity:0.1;enable-background:new    ;" d="M373.44,146.398V92.925c0-2.833,2.318-5.151,5.151-5.151h-17.035  c-2.833,0-5.151,2.318-5.151,5.151v53.473c0,2.833,2.318,5.151,5.151,5.151h17.035C375.759,151.549,373.44,149.231,373.44,146.398z" data-original="#000000" class=""></path><g>
	<path style="fill:#F6B245;" d="M438.545,87.774h-32.856v63.775h32.856c12.321,0,22.404-10.24,22.404-22.758v-18.26   C460.949,98.015,450.866,87.774,438.545,87.774z" data-original="#F6B245"></path>
	<path style="fill:#F6B245;" d="M227.155,125.352H86.908c-36.296,0-70.109,21.383-86.141,54.477   c-1.139,2.351-1.002,5.133,0.361,7.358c1.362,2.225,3.759,3.578,6.339,3.578h219.686v-65.413H227.155z" data-original="#F6B245"></path>
	<path style="fill:#F6B245;" d="M288.115,185.613c0,2.833-2.317,5.151-5.15,5.151h-60.712c-2.833,0-5.151-2.318-5.151-5.151V52.573   c0-2.833,2.318-5.151,5.151-5.151h60.712c2.833,0,5.15,2.318,5.15,5.151V185.613z" data-original="#F6B245"></path>
</g><path style="opacity:0.1;enable-background:new    ;" d="M239.585,185.613V52.573c0-2.833,2.318-5.151,5.151-5.151h-22.483  c-2.833,0-5.151,2.318-5.151,5.151v133.04c0,2.833,2.318,5.151,5.151,5.151h22.483C241.903,190.764,239.585,188.446,239.585,185.613  z" data-original="#000000" class=""></path><path style="fill:#DB5777" d="M505.414,270.725H356.958v27.179h97.176c2.292,14.497,14.462,25.019,28.934,25.019  c14.166,0,28.823-10.708,28.823-24.385c0-0.403,0.109-21.122,0.109-21.122C512,273.72,509.051,270.725,505.414,270.725z" data-original="#FFB1C5" class="active-path" data-old_color="#DB5878"></path><path style="fill:#EA2E5E" d="M202.646,270.725c-2.249,0-4.357,1.121-5.64,2.998c-1.283,1.878-1.578,4.277-0.791,6.418  c12.968,35.246,46.569,58.929,83.611,58.929c30.402,0,58.476-15.96,74.735-41.165h12.697v-27.179H202.646V270.725z" data-original="#FF96B1" class="" data-old_color="#E82456"></path><path style="opacity:0.1;enable-background:new    ;" d="M224.329,280.141c-0.787-2.141-0.492-4.54,0.791-6.418  c1.283-1.877,3.39-2.998,5.64-2.998h-28.113c-2.249,0-4.357,1.121-5.64,2.998c-1.283,1.878-1.578,4.277-0.791,6.418  c12.968,35.246,46.569,58.929,83.611,58.929c4.754,0,9.451-0.396,14.056-1.151C262.613,332.793,235.633,310.863,224.329,280.141z" data-original="#000000" class=""></path></g> </svg>