<?xml version="1.0" encoding="iso-8859-1"?>
<!-- Generator: Adobe Illustrator 19.0.0, SVG Export Plug-In . SVG Version: 6.00 Build 0)  -->
<svg version="1.1" id="Capa_1" xmlns="http://www.w3.org/2000/svg" xmlns:xlink="http://www.w3.org/1999/xlink" x="0px" y="0px"
	 viewBox="0 0 512 512" style="enable-background:new 0 0 512 512;" xml:space="preserve">
<g>
	<path style="fill:#303C42;" d="M469.333,64h-32c-5.896,0-10.667,4.771-10.667,10.667c0,5.896,4.771,10.667,10.667,10.667h32
		c11.76,0,21.333,9.573,21.333,21.333v32c0,5.896,4.771,10.667,10.667,10.667S512,144.563,512,138.667v-32
		C512,83.135,492.865,64,469.333,64z"/>
	<path style="fill:#303C42;" d="M501.333,362.667c-5.896,0-10.667,4.771-10.667,10.667v32c0,11.76-9.573,21.333-21.333,21.333h-32
		c-5.896,0-10.667,4.771-10.667,10.667S431.438,448,437.333,448h32C492.865,448,512,428.865,512,405.333v-32
		C512,367.438,507.229,362.667,501.333,362.667z"/>
	<path style="fill:#303C42;" d="M74.667,426.667h-32c-11.76,0-21.333-9.573-21.333-21.333v-32c0-5.896-4.771-10.667-10.667-10.667
		S0,367.438,0,373.333v32C0,428.865,19.135,448,42.667,448h32c5.896,0,10.667-4.771,10.667-10.667S80.563,426.667,74.667,426.667z"
		/>
	<path style="fill:#303C42;" d="M10.667,149.333c5.896,0,10.667-4.771,10.667-10.667v-32c0-11.76,9.573-21.333,21.333-21.333h32
		c5.896,0,10.667-4.771,10.667-10.667C85.333,68.771,80.563,64,74.667,64h-32C19.135,64,0,83.135,0,106.667v32
		C0,144.563,4.771,149.333,10.667,149.333z"/>
	<path style="fill:#303C42;" d="M146.208,259.125c-4.167-4.167-10.917-4.167-15.083,0l-85.333,85.333c-2,2-3.125,4.708-3.125,7.542
		v42.667c0,5.896,4.771,10.667,10.667,10.667h405.333c5.896,0,10.667-4.771,10.667-10.667V352c0-2.833-1.125-5.542-3.125-7.542
		L316.875,195.125c-4.167-4.167-10.917-4.167-15.083,0L192,304.917L146.208,259.125z"/>
</g>
<path style="fill:#7CB342;" d="M309.333,217.75L448,356.417V384H64v-27.583l74.667-74.667l77.792,77.792
	c4.167,4.167,10.917,4.167,15.083,0c4.167-4.167,4.167-10.917,0-15.083L207.083,320L309.333,217.75z"/>
<polygon style="opacity:0.2;fill:#FFFFFF;enable-background:new    ;" points="448,356.714 448,356.417 437.431,345.848 "/>
<circle style="fill:#303C42;" cx="181.333" cy="181.333" r="53.333"/>
<circle style="fill:#FFCA28;" cx="181.333" cy="181.333" r="32"/>
<linearGradient id="SVGID_1_" gradientUnits="userSpaceOnUse" x1="-47.4108" y1="640.4102" x2="-21.9955" y2="628.5585" gradientTransform="matrix(21.3333 0 0 -21.3333 996.3334 13791.667)">
	<stop  offset="0" style="stop-color:#FFFFFF;stop-opacity:0.2"/>
	<stop  offset="1" style="stop-color:#FFFFFF;stop-opacity:0"/>
</linearGradient>
<path style="fill:url(#SVGID_1_);" d="M469.333,64h-32c-5.896,0-10.667,4.771-10.667,10.667c0,5.896,4.771,10.667,10.667,10.667h32
	c11.76,0,21.333,9.573,21.333,21.333v32c0,5.896,4.771,10.667,10.667,10.667S512,144.563,512,138.667v-32
	C512,83.135,492.865,64,469.333,64z M501.333,362.667c-5.896,0-10.667,4.771-10.667,10.667v32c0,11.76-9.573,21.333-21.333,21.333
	h-32c-5.896,0-10.667,4.771-10.667,10.667S431.438,448,437.333,448h32C492.865,448,512,428.865,512,405.333v-32
	C512,367.438,507.229,362.667,501.333,362.667z M74.667,426.667h-32c-11.76,0-21.333-9.573-21.333-21.333v-32
	c0-5.896-4.771-10.667-10.667-10.667S0,367.438,0,373.333v32C0,428.865,19.135,448,42.667,448h32
	c5.896,0,10.667-4.771,10.667-10.667S80.563,426.667,74.667,426.667z M10.667,149.333c5.896,0,10.667-4.771,10.667-10.667v-32
	c0-11.76,9.573-21.333,21.333-21.333h32c5.896,0,10.667-4.771,10.667-10.667C85.333,68.771,80.563,64,74.667,64h-32
	C19.135,64,0,83.135,0,106.667v32C0,144.563,4.771,149.333,10.667,149.333z M146.208,259.125c-4.167-4.167-10.917-4.167-15.083,0
	l-85.333,85.333c-2,2-3.125,4.708-3.125,7.542v42.667c0,5.896,4.771,10.667,10.667,10.667h405.333
	c5.896,0,10.667-4.771,10.667-10.667V352c0-2.833-1.125-5.542-3.125-7.542L316.875,195.125c-4.167-4.167-10.917-4.167-15.083,0
	L192,304.917L146.208,259.125z M181.333,234.667c29.406,0,53.333-23.927,53.333-53.333S210.74,128,181.333,128
	S128,151.927,128,181.333S151.927,234.667,181.333,234.667z"/>
<g>
</g>
<g>
</g>
<g>
</g>
<g>
</g>
<g>
</g>
<g>
</g>
<g>
</g>
<g>
</g>
<g>
</g>
<g>
</g>
<g>
</g>
<g>
</g>
<g>
</g>
<g>
</g>
<g>
</g>
</svg>
